<?xml version="1.0" encoding="UTF-8"?>
<svg xmlns="http://www.w3.org/2000/svg" viewBox="0 0 512 512" width="512" height="512">
  <defs>
    <style>
      .shadow { fill: rgba(0,0,0,0.25); }
      .highlight { fill: rgba(255,255,255,0.3); }
      .outline { stroke: #1a1a1a; stroke-width: 8; stroke-linejoin: round; stroke-linecap: round; }
    </style>
  </defs>

        <g transform="rotate(15 256 256)">
            <!-- Flat blue crumpled gloves -->
            <path class="outline" fill="#87CEFA" d="M 150 150 Q 200 100 250 150 Q 280 180 270 250 Q 300 220 320 280 Q 350 350 300 400 Q 250 450 150 400 Q 80 350 120 250 Q 150 200 150 150 Z" opacity="0.9" />
            
            <!-- Fingers (twisted/empty) -->
            <path class="outline" fill="#87CEFA" d="M 250 150 Q 280 120 320 160 Q 300 190 270 250" opacity="0.9" />
            <path class="outline" fill="#87CEFA" d="M 320 280 Q 360 250 380 300 Q 350 340 300 400" opacity="0.9" />
            
            <!-- Folds and Creases -->
            <path fill="none" stroke="#4682B4" stroke-width="4" d="M 180 250 Q 220 280 160 350" />
            <path fill="none" stroke="#4682B4" stroke-width="4" d="M 220 300 Q 260 320 230 380" />
            <path fill="none" stroke="#4682B4" stroke-width="4" d="M 270 200 Q 230 250 250 280" />
            
            <!-- Rolled Cuff -->
            <path class="outline" fill="#B0E0E6" d="M 100 320 Q 120 280 150 230 Q 120 220 90 260 Z" />
            <path class="outline" fill="#B0E0E6" d="M 150 420 Q 200 450 250 420 Q 280 460 220 470 Z" />
        </g>
    </svg>
