<?xml version="1.0" encoding="UTF-8"?>
<svg xmlns="http://www.w3.org/2000/svg" viewBox="0 0 512 512" width="512" height="512">
  <defs>
    <style>
      .shadow { fill: rgba(0,0,0,0.25); }
      .highlight { fill: rgba(255,255,255,0.3); }
      .outline { stroke: #1a1a1a; stroke-width: 8; stroke-linejoin: round; stroke-linecap: round; }
    </style>
  </defs>

        <g transform="rotate(20 256 256)">
            <!-- Wrapper Back -->
            <path class="outline" fill="#111111" d="M 80 200 L 400 160 Q 420 200 400 250 L 80 300 Q 60 250 80 200 Z" />
            
            <!-- Wrapper Inside (Silver) -->
            <path fill="#C0C0C0" d="M 200 185 L 400 160 Q 420 200 400 250 L 200 280 Z" />
            <path class="highlight" d="M 220 190 L 380 170 Q 400 200 380 240 L 220 265 Z" />
            
            <!-- Wrapper Front (Red/Orange) -->
            <path fill="#FF4500" d="M 85 205 L 200 185 L 200 280 L 85 295 Z" />
            
            <!-- Branding -->
            <text x="90" y="260" font-family="sans-serif" font-size="36" font-weight="bold" fill="#FFF" transform="rotate(-10 90 260)">CLIF</text>
            <path fill="none" stroke="#FFF" stroke-width="4" d="M 90 220 L 180 205" />
            
            <!-- Torn zigzag edges -->
            <path class="outline" fill="none" stroke-width="6" stroke-linejoin="miter" d="M 400 160 L 390 180 L 410 200 L 380 220 L 410 240 L 400 250" />
            <path class="outline" fill="none" stroke-width="6" stroke-linejoin="miter" d="M 80 200 L 70 220 L 90 240 L 60 260 L 90 280 L 80 300" />
            
            <!-- Crumbs -->
            <circle cx="280" cy="220" r="8" fill="#8B4513" />
            <circle cx="320" cy="260" r="6" fill="#8B4513" />
            <circle cx="360" cy="200" r="5" fill="#8B4513" />
            <circle cx="340" cy="240" r="7" fill="#8B4513" />
        </g>
    </svg>
