<?xml version="1.0" encoding="UTF-8"?>
<svg xmlns="http://www.w3.org/2000/svg" viewBox="0 0 512 512" width="512" height="512">
  <defs>
    <style>
      .shadow { fill: rgba(0,0,0,0.25); }
      .highlight { fill: rgba(255,255,255,0.3); }
      .outline { stroke: #1a1a1a; stroke-width: 8; stroke-linejoin: round; stroke-linecap: round; }
    </style>
  </defs>

        <g transform="translate(0, 30)">
            <!-- Main Shell Body -->
            <path class="outline" fill="#DCDCDC" d="M 100 400 Q 150 200 250 150 Q 350 200 400 400 Q 250 450 100 400 Z" />
            <path fill="#F8F8FF" d="M 120 390 Q 160 220 250 170 Q 340 220 380 390 Q 250 430 120 390 Z" />
            
            <!-- Striations / Ridges -->
            <path class="outline" fill="none" stroke-width="8" d="M 250 170 Q 250 280 250 410" />
            <path class="outline" fill="none" stroke-width="8" d="M 200 200 Q 180 300 170 400" />
            <path class="outline" fill="none" stroke-width="8" d="M 300 200 Q 320 300 330 400" />
            <path class="outline" fill="none" stroke-width="6" d="M 160 250 Q 140 320 130 395" />
            <path class="outline" fill="none" stroke-width="6" d="M 340 250 Q 360 320 370 395" />
            
            <!-- Coloring / Shading -->
            <path class="shadow" d="M 120 390 Q 180 250 250 170 L 250 410 Q 180 410 120 390 Z" />
            <path fill="#9370DB" opacity="0.2" d="M 250 170 Q 320 250 380 390 L 250 410 Z" />
            
            <!-- Top Opening (Volcano shape) -->
            <ellipse cx="250" cy="150" rx="40" ry="20" class="outline" fill="#2F4F4F" />
            <ellipse cx="250" cy="150" rx="30" ry="12" fill="#111111" />
            
            <!-- Small Barnacle Cluster on the side -->
            <path class="outline" fill="#A9A9A9" d="M 340 280 L 370 250 L 390 290 Z" />
            <circle cx="365" cy="275" r="15" fill="#D3D3D3" />
            <circle cx="365" cy="275" r="8" fill="#2F4F4F" />

            <path class="outline" fill="#A9A9A9" d="M 370 320 L 400 290 L 420 330 Z" />
            <circle cx="395" cy="315" r="18" fill="#D3D3D3" />
            <circle cx="395" cy="315" r="10" fill="#2F4F4F" />
            
            <!-- Algae / Moss base -->
            <path fill="#556B2F" opacity="0.4" d="M 100 400 Q 250 350 400 400 Q 250 450 100 400 Z" />
        </g>
    </svg>
