<?xml version="1.0" encoding="UTF-8"?>
<svg xmlns="http://www.w3.org/2000/svg" viewBox="0 0 512 512" width="512" height="512">
  <defs>
    <style>
      .shadow { fill: rgba(0,0,0,0.25); }
      .highlight { fill: rgba(255,255,255,0.3); }
      .outline { stroke: #1a1a1a; stroke-width: 8; stroke-linejoin: round; stroke-linecap: round; }
    </style>
  </defs>

        <g transform="rotate(-5 256 256)">
            <!-- Map Sections (Folded) -->
            <path class="outline" fill="#FFF8DC" d="M 60 120 L 180 80 L 320 140 L 460 100 L 430 380 L 290 420 L 150 360 L 30 400 Z" />
            
            <!-- Left Fold -->
            <path fill="#F5DEB3" d="M 65 130 L 175 95 L 145 360 L 35 395 Z" />
            <!-- Center Fold -->
            <path fill="#FFE4B5" d="M 180 95 L 315 150 L 285 410 L 150 360 Z" />
            <!-- Right Fold -->
            <path fill="#DEB887" d="M 320 150 L 450 115 L 420 375 L 290 410 Z" />
            
            <!-- Water Features -->
            <path fill="#4682B4" opacity="0.6" d="M 150 120 Q 200 150 180 220 T 300 280 T 420 200 L 420 240 Q 300 320 180 260 T 130 160 Z" />
            <!-- Park Features -->
            <path fill="#32CD32" opacity="0.5" d="M 220 140 L 260 160 L 250 220 L 210 200 Z" />
            
            <!-- Roads -->
            <path fill="none" stroke="#D2B48C" stroke-width="6" d="M 80 200 L 150 180 L 250 250 L 350 220 L 420 300" />
            <path fill="none" stroke="#D2B48C" stroke-width="6" d="M 120 300 L 200 320 L 280 200 L 400 150" />
            
            <!-- X Marks the Spot -->
            <path fill="none" stroke="#FF0000" stroke-width="8" stroke-linecap="round" d="M 270 240 L 290 260 M 290 240 L 270 260" />
            
            <!-- Map Text -->
            <text x="340" y="160" font-family="sans-serif" font-size="28" font-weight="bold" fill="#8B4513" transform="rotate(-15 340 160)">NYC MAP</text>
            
            <path class="shadow" d="M 175 95 L 180 95 L 150 360 L 145 360 Z" />
            <path class="shadow" d="M 315 150 L 320 150 L 290 410 L 285 410 Z" />
            <path class="outline" fill="none" stroke-width="4" d="M 175 90 L 150 360" />
            <path class="outline" fill="none" stroke-width="4" d="M 320 140 L 290 415" />
        </g>
    </svg>
