<?xml version="1.0" encoding="UTF-8"?>
<svg xmlns="http://www.w3.org/2000/svg" viewBox="0 0 512 512" width="512" height="512">
  <defs>
    <style>
      .shadow { fill: rgba(0,0,0,0.25); }
      .highlight { fill: rgba(255,255,255,0.3); }
      .outline { stroke: #1a1a1a; stroke-width: 8; stroke-linejoin: round; stroke-linecap: round; }
    </style>
  </defs>

        <g transform="rotate(10 256 256)">
            <!-- Left Frame and Lens -->
            <path class="outline" fill="none" stroke="#2F4F4F" stroke-width="12" d="M 150 200 Q 150 150 200 150 Q 250 150 250 200 Q 250 250 200 250 Q 150 250 150 200 Z" />
            <path fill="#E0FFFF" opacity="0.4" d="M 160 200 Q 160 160 200 160 Q 240 160 240 200 Q 240 240 200 240 Q 160 240 160 200 Z" />
            
            <!-- Bridge (Snapped) -->
            <path class="outline" fill="none" stroke="#2F4F4F" stroke-width="12" d="M 250 180 Q 275 160 280 180" />
            
            <!-- Right Frame (Bent and broken off) -->
            <g transform="translate(60, 40) rotate(30 300 200)">
                <path class="outline" fill="none" stroke="#2F4F4F" stroke-width="12" d="M 300 200 Q 300 150 350 150 Q 400 150 400 200 Q 400 250 350 250 Q 300 250 300 200 Z" />
                <!-- Cracked Lens -->
                <path fill="#E0FFFF" opacity="0.4" d="M 310 200 Q 310 160 350 160 Q 390 160 390 200 Q 390 240 350 240 Q 310 240 310 200 Z" />
                <path class="outline" fill="none" stroke="#111" stroke-width="2" d="M 320 170 L 350 200 L 390 180" />
                <path class="outline" fill="none" stroke="#111" stroke-width="2" d="M 350 200 L 340 240" />
                <!-- Remaining broken bridge piece -->
                <path class="outline" fill="none" stroke="#2F4F4F" stroke-width="12" d="M 300 180 Q 280 160 270 170" />
            </g>
            
            <!-- Arm pieces -->
            <path class="outline" fill="none" stroke="#111111" stroke-width="10" d="M 150 200 L 80 120" />
            <path class="outline" fill="none" stroke="#111111" stroke-width="10" d="M 400 250 L 460 320" />
        </g>
    </svg>
