<?xml version="1.0" encoding="UTF-8"?>
<svg xmlns="http://www.w3.org/2000/svg" viewBox="0 0 512 512" width="512" height="512">
  <defs>
    <style>
      .shadow { fill: rgba(0,0,0,0.25); }
      .highlight { fill: rgba(255,255,255,0.3); }
      .outline { stroke: #1a1a1a; stroke-width: 8; stroke-linejoin: round; stroke-linecap: round; }
    </style>
  </defs>

        <g>
            <!-- Cup Body -->
            <path class="outline" fill="#FFFFFF" d="M 160 120 L 340 120 L 300 400 L 200 400 Z" />
            
            <!-- Cardboard Sleeve -->
            <path class="outline" fill="#DEB887" d="M 175 220 L 325 220 L 310 320 L 190 320 Z" />
            <!-- Sleeve Corrugated Texture -->
            <path fill="none" stroke="#CD853F" stroke-width="4" d="M 185 220 L 200 320 M 205 220 L 220 320 M 225 220 L 240 320 M 245 220 L 260 320 M 265 220 L 280 320 M 285 220 L 300 320" opacity="0.5" />
            
            <!-- Coffee Stain -->
            <path fill="#8B4513" d="M 180 120 Q 200 150 170 180 Z" opacity="0.7" />
            <circle cx="260" cy="380" r="10" fill="#8B4513" opacity="0.6" />
            <circle cx="280" cy="360" r="5" fill="#8B4513" opacity="0.5" />
            
            <!-- Shadows & Highlights -->
            <path class="shadow" d="M 160 120 L 220 120 L 200 400 L 200 400 Z" opacity="0.3" />
            <path class="highlight" d="M 280 120 L 340 120 L 300 400 L 280 400 Z" />
            
            <!-- Crushed Side -->
            <path class="outline" fill="none" stroke-width="6" d="M 340 120 L 320 150 L 335 180 L 315 220" />
        </g>
    </svg>
