<?xml version="1.0" encoding="UTF-8"?>
<svg xmlns="http://www.w3.org/2000/svg" viewBox="0 0 512 512" width="512" height="512">
  <defs>
    <style>
      .shadow { fill: rgba(0,0,0,0.25); }
      .highlight { fill: rgba(255,255,255,0.3); }
      .outline { stroke: #1a1a1a; stroke-width: 8; stroke-linejoin: round; stroke-linecap: round; }
    </style>
  </defs>

        <g transform="rotate(10 256 256)">
            <!-- Box Inside (Brown) -->
            <path fill="#8B4513" d="M 150 180 L 380 120 L 420 320 L 190 380 Z" />
            
            <!-- Box Back Wall -->
            <path class="outline" fill="#D2691E" d="M 150 180 L 380 120 L 380 80 L 150 140 Z" />
            
            <!-- Tissue Paper inside -->
            <path class="outline" fill="#F8F8FF" d="M 180 200 Q 250 100 350 180 Q 400 250 380 300 Q 300 250 200 350 Z" />
            <path class="highlight" d="M 200 210 Q 250 150 330 200 Q 350 250 340 280 Q 280 250 210 310 Z" />
            <path fill="none" stroke="#D3D3D3" stroke-width="4" d="M 250 180 Q 280 200 250 250 M 320 220 Q 350 250 300 300" />
            
            <!-- Box Front/Side Walls (Orange) -->
            <path class="outline" fill="#FF4500" d="M 150 140 L 150 180 L 190 380 L 190 340 Z" />
            <path class="outline" fill="#FF4500" d="M 190 380 L 420 320 L 420 280 L 190 340 Z" />
            
            <!-- Box Lid (Crushed, disconnected) -->
            <g transform="translate(-50, 80) rotate(-20)">
                <path class="outline" fill="#FF4500" d="M 250 350 L 450 300 L 480 380 L 280 430 Z" />
                <path fill="none" stroke="#FFFFFF" stroke-width="8" d="M 300 380 L 430 340" />
                <circle cx="365" cy="360" r="20" fill="#FFFFFF" />
            </g>
        </g>
    </svg>
