<?xml version="1.0" encoding="UTF-8"?>
<svg xmlns="http://www.w3.org/2000/svg" viewBox="0 0 512 512" width="512" height="512">
  <defs>
    <style>
      .shadow { fill: rgba(0,0,0,0.25); }
      .highlight { fill: rgba(255,255,255,0.3); }
      .outline { stroke: #1a1a1a; stroke-width: 8; stroke-linejoin: round; stroke-linecap: round; }
    </style>
  </defs>

        <g transform="translate(0, 30)">
            <!-- Main Crescent Shape -->
            <path class="outline" fill="#2F4F4F" d="M 80 200 Q 250 50 420 200 Q 450 350 400 350 Q 250 150 100 350 Q 50 350 80 200 Z" />
            <path class="highlight" d="M 100 200 Q 250 80 400 200 Q 420 280 400 320 Q 250 170 100 320 Q 80 280 100 200 Z" />
            
            <!-- Velcro backing (Red/Orange edge) -->
            <path class="outline" fill="none" stroke="#CD5C5C" stroke-width="8" d="M 70 210 Q 250 40 430 210" />
            
            <!-- Foam Texture (Dimples) -->
            <circle cx="150" cy="200" r="4" fill="#111" opacity="0.4" />
            <circle cx="200" cy="150" r="3" fill="#111" opacity="0.4" />
            <circle cx="250" cy="130" r="5" fill="#111" opacity="0.4" />
            <circle cx="300" cy="150" r="4" fill="#111" opacity="0.4" />
            <circle cx="350" cy="200" r="4" fill="#111" opacity="0.4" />
            <circle cx="120" cy="250" r="3" fill="#111" opacity="0.4" />
            <circle cx="380" cy="250" r="5" fill="#111" opacity="0.4" />
            
            <!-- Ripped end -->
            <path class="outline" fill="#1a1a1a" d="M 400 350 L 420 330 L 400 310 L 430 280 Z" />
            <path fill="#2F4F4F" d="M 405 345 L 415 330 L 405 315 L 420 285 Z" />
        </g>
    </svg>
